<mxfile host="app.diagrams.net" modified="2024-06-05T13:15:33.174Z" agent="Mozilla/5.0 (Windows NT 10.0; Win64; x64) AppleWebKit/537.36 (KHTML, like Gecko) Chrome/125.0.0.0 Safari/537.36 Edg/125.0.0.0" etag="uCXmAnxaDq-832JviWTQ" version="24.4.4" type="device">
  <diagram id="C5RBs43oDa-KdzZeNtuy" name="Page-1">
    <mxGraphModel dx="1822" dy="1058" grid="1" gridSize="10" guides="1" tooltips="1" connect="1" arrows="1" fold="1" page="1" pageScale="1" pageWidth="827" pageHeight="1169" math="0" shadow="0">
      <root>
        <mxCell id="WIyWlLk6GJQsqaUBKTNV-0" />
        <mxCell id="WIyWlLk6GJQsqaUBKTNV-1" parent="WIyWlLk6GJQsqaUBKTNV-0" />
        <mxCell id="zkfFHV4jXpPFQw0GAbJ--0" value="Komari::Area" style="swimlane;fontStyle=1;align=center;verticalAlign=top;childLayout=stackLayout;horizontal=1;startSize=26;horizontalStack=0;resizeParent=1;resizeLast=0;collapsible=1;marginBottom=0;rounded=0;shadow=0;strokeWidth=1;" parent="WIyWlLk6GJQsqaUBKTNV-1" vertex="1">
          <mxGeometry x="170" y="510" width="220" height="502" as="geometry">
            <mxRectangle x="230" y="140" width="160" height="26" as="alternateBounds" />
          </mxGeometry>
        </mxCell>
        <mxCell id="zkfFHV4jXpPFQw0GAbJ--1" value="area_id_: uint8_t" style="text;align=left;verticalAlign=top;spacingLeft=4;spacingRight=4;overflow=hidden;rotatable=0;points=[[0,0.5],[1,0.5]];portConstraint=eastwest;" parent="zkfFHV4jXpPFQw0GAbJ--0" vertex="1">
          <mxGeometry y="26" width="220" height="26" as="geometry" />
        </mxCell>
        <mxCell id="zkfFHV4jXpPFQw0GAbJ--2" value="n_neurons_: int" style="text;align=left;verticalAlign=top;spacingLeft=4;spacingRight=4;overflow=hidden;rotatable=0;points=[[0,0.5],[1,0.5]];portConstraint=eastwest;rounded=0;shadow=0;html=0;" parent="zkfFHV4jXpPFQw0GAbJ--0" vertex="1">
          <mxGeometry y="52" width="220" height="26" as="geometry" />
        </mxCell>
        <mxCell id="zkfFHV4jXpPFQw0GAbJ--3" value="k_winners_: int" style="text;align=left;verticalAlign=top;spacingLeft=4;spacingRight=4;overflow=hidden;rotatable=0;points=[[0,0.5],[1,0.5]];portConstraint=eastwest;rounded=0;shadow=0;html=0;" parent="zkfFHV4jXpPFQw0GAbJ--0" vertex="1">
          <mxGeometry y="78" width="220" height="26" as="geometry" />
        </mxCell>
        <mxCell id="tottdEG-GUZgyUz6kuhv-3" value="beta_: float" style="text;align=left;verticalAlign=top;spacingLeft=4;spacingRight=4;overflow=hidden;rotatable=0;points=[[0,0.5],[1,0.5]];portConstraint=eastwest;rounded=0;shadow=0;html=0;" parent="zkfFHV4jXpPFQw0GAbJ--0" vertex="1">
          <mxGeometry y="104" width="220" height="26" as="geometry" />
        </mxCell>
        <mxCell id="tottdEG-GUZgyUz6kuhv-4" value="size_support_: int" style="text;align=left;verticalAlign=top;spacingLeft=4;spacingRight=4;overflow=hidden;rotatable=0;points=[[0,0.5],[1,0.5]];portConstraint=eastwest;rounded=0;shadow=0;html=0;" parent="zkfFHV4jXpPFQw0GAbJ--0" vertex="1">
          <mxGeometry y="130" width="220" height="26" as="geometry" />
        </mxCell>
        <mxCell id="tottdEG-GUZgyUz6kuhv-6" value="new_size_support_: int" style="text;align=left;verticalAlign=top;spacingLeft=4;spacingRight=4;overflow=hidden;rotatable=0;points=[[0,0.5],[1,0.5]];portConstraint=eastwest;rounded=0;shadow=0;html=0;" parent="zkfFHV4jXpPFQw0GAbJ--0" vertex="1">
          <mxGeometry y="156" width="220" height="26" as="geometry" />
        </mxCell>
        <mxCell id="tottdEG-GUZgyUz6kuhv-7" value="is_fixed_: bool" style="text;align=left;verticalAlign=top;spacingLeft=4;spacingRight=4;overflow=hidden;rotatable=0;points=[[0,0.5],[1,0.5]];portConstraint=eastwest;rounded=0;shadow=0;html=0;" parent="zkfFHV4jXpPFQw0GAbJ--0" vertex="1">
          <mxGeometry y="182" width="220" height="26" as="geometry" />
        </mxCell>
        <mxCell id="tottdEG-GUZgyUz6kuhv-5" value="is_explicit: bool" style="text;align=left;verticalAlign=top;spacingLeft=4;spacingRight=4;overflow=hidden;rotatable=0;points=[[0,0.5],[1,0.5]];portConstraint=eastwest;rounded=0;shadow=0;html=0;" parent="zkfFHV4jXpPFQw0GAbJ--0" vertex="1">
          <mxGeometry y="208" width="220" height="26" as="geometry" />
        </mxCell>
        <mxCell id="tottdEG-GUZgyUz6kuhv-9" value="winners_: std::vector&lt;int&gt;" style="text;align=left;verticalAlign=top;spacingLeft=4;spacingRight=4;overflow=hidden;rotatable=0;points=[[0,0.5],[1,0.5]];portConstraint=eastwest;rounded=0;shadow=0;html=0;" parent="zkfFHV4jXpPFQw0GAbJ--0" vertex="1">
          <mxGeometry y="234" width="220" height="26" as="geometry" />
        </mxCell>
        <mxCell id="tottdEG-GUZgyUz6kuhv-8" value="new_winners_: std::vector&lt;int&gt;" style="text;align=left;verticalAlign=top;spacingLeft=4;spacingRight=4;overflow=hidden;rotatable=0;points=[[0,0.5],[1,0.5]];portConstraint=eastwest;rounded=0;shadow=0;html=0;" parent="zkfFHV4jXpPFQw0GAbJ--0" vertex="1">
          <mxGeometry y="260" width="220" height="26" as="geometry" />
        </mxCell>
        <mxCell id="tottdEG-GUZgyUz6kuhv-10" value="bit_status_: uint8_t" style="text;align=left;verticalAlign=top;spacingLeft=4;spacingRight=4;overflow=hidden;rotatable=0;points=[[0,0.5],[1,0.5]];portConstraint=eastwest;rounded=0;shadow=0;html=0;" parent="zkfFHV4jXpPFQw0GAbJ--0" vertex="1">
          <mxGeometry y="286" width="220" height="26" as="geometry" />
        </mxCell>
        <mxCell id="zkfFHV4jXpPFQw0GAbJ--4" value="" style="line;html=1;strokeWidth=1;align=left;verticalAlign=middle;spacingTop=-1;spacingLeft=3;spacingRight=3;rotatable=0;labelPosition=right;points=[];portConstraint=eastwest;" parent="zkfFHV4jXpPFQw0GAbJ--0" vertex="1">
          <mxGeometry y="312" width="220" height="8" as="geometry" />
        </mxCell>
        <mxCell id="tottdEG-GUZgyUz6kuhv-2" value="applyRule(inhibit: bool, population: int)" style="text;align=left;verticalAlign=top;spacingLeft=4;spacingRight=4;overflow=hidden;rotatable=0;points=[[0,0.5],[1,0.5]];portConstraint=eastwest;rounded=0;shadow=0;html=0;" parent="zkfFHV4jXpPFQw0GAbJ--0" vertex="1">
          <mxGeometry y="320" width="220" height="26" as="geometry" />
        </mxCell>
        <mxCell id="tottdEG-GUZgyUz6kuhv-1" value="update()" style="text;align=left;verticalAlign=top;spacingLeft=4;spacingRight=4;overflow=hidden;rotatable=0;points=[[0,0.5],[1,0.5]];portConstraint=eastwest;rounded=0;shadow=0;html=0;" parent="zkfFHV4jXpPFQw0GAbJ--0" vertex="1">
          <mxGeometry y="346" width="220" height="26" as="geometry" />
        </mxCell>
        <mxCell id="tottdEG-GUZgyUz6kuhv-15" value="fire(begin: int, end: int)" style="text;align=left;verticalAlign=top;spacingLeft=4;spacingRight=4;overflow=hidden;rotatable=0;points=[[0,0.5],[1,0.5]];portConstraint=eastwest;" parent="zkfFHV4jXpPFQw0GAbJ--0" vertex="1">
          <mxGeometry y="372" width="220" height="26" as="geometry" />
        </mxCell>
        <mxCell id="tottdEG-GUZgyUz6kuhv-14" value="isActive() : bool" style="text;align=left;verticalAlign=top;spacingLeft=4;spacingRight=4;overflow=hidden;rotatable=0;points=[[0,0.5],[1,0.5]];portConstraint=eastwest;" parent="zkfFHV4jXpPFQw0GAbJ--0" vertex="1">
          <mxGeometry y="398" width="220" height="26" as="geometry" />
        </mxCell>
        <mxCell id="tottdEG-GUZgyUz6kuhv-13" value="fixAssembly()" style="text;align=left;verticalAlign=top;spacingLeft=4;spacingRight=4;overflow=hidden;rotatable=0;points=[[0,0.5],[1,0.5]];portConstraint=eastwest;" parent="zkfFHV4jXpPFQw0GAbJ--0" vertex="1">
          <mxGeometry y="424" width="220" height="26" as="geometry" />
        </mxCell>
        <mxCell id="tottdEG-GUZgyUz6kuhv-16" value="unfixAssembly()" style="text;align=left;verticalAlign=top;spacingLeft=4;spacingRight=4;overflow=hidden;rotatable=0;points=[[0,0.5],[1,0.5]];portConstraint=eastwest;" parent="zkfFHV4jXpPFQw0GAbJ--0" vertex="1">
          <mxGeometry y="450" width="220" height="26" as="geometry" />
        </mxCell>
        <mxCell id="zkfFHV4jXpPFQw0GAbJ--5" value="info()" style="text;align=left;verticalAlign=top;spacingLeft=4;spacingRight=4;overflow=hidden;rotatable=0;points=[[0,0.5],[1,0.5]];portConstraint=eastwest;" parent="zkfFHV4jXpPFQw0GAbJ--0" vertex="1">
          <mxGeometry y="476" width="220" height="26" as="geometry" />
        </mxCell>
        <mxCell id="zkfFHV4jXpPFQw0GAbJ--6" value="Komari::Fiber" style="swimlane;fontStyle=1;align=center;verticalAlign=top;childLayout=stackLayout;horizontal=1;startSize=26;horizontalStack=0;resizeParent=1;resizeLast=0;collapsible=1;marginBottom=0;rounded=0;shadow=0;strokeWidth=1;" parent="WIyWlLk6GJQsqaUBKTNV-1" vertex="1">
          <mxGeometry x="150" y="270" width="280" height="190" as="geometry">
            <mxRectangle x="130" y="380" width="160" height="26" as="alternateBounds" />
          </mxGeometry>
        </mxCell>
        <mxCell id="zkfFHV4jXpPFQw0GAbJ--7" value="beta_: float" style="text;align=left;verticalAlign=top;spacingLeft=4;spacingRight=4;overflow=hidden;rotatable=0;points=[[0,0.5],[1,0.5]];portConstraint=eastwest;" parent="zkfFHV4jXpPFQw0GAbJ--6" vertex="1">
          <mxGeometry y="26" width="280" height="26" as="geometry" />
        </mxCell>
        <mxCell id="tottdEG-GUZgyUz6kuhv-18" value="shape_: int[2]" style="text;align=left;verticalAlign=top;spacingLeft=4;spacingRight=4;overflow=hidden;rotatable=0;points=[[0,0.5],[1,0.5]];portConstraint=eastwest;rounded=0;shadow=0;html=0;" parent="zkfFHV4jXpPFQw0GAbJ--6" vertex="1">
          <mxGeometry y="52" width="280" height="26" as="geometry" />
        </mxCell>
        <mxCell id="tottdEG-GUZgyUz6kuhv-17" value="outgoing_synapses_: std::vector&lt;std::vector&lt;float&gt;&gt;" style="text;align=left;verticalAlign=top;spacingLeft=4;spacingRight=4;overflow=hidden;rotatable=0;points=[[0,0.5],[1,0.5]];portConstraint=eastwest;rounded=0;shadow=0;html=0;" parent="zkfFHV4jXpPFQw0GAbJ--6" vertex="1">
          <mxGeometry y="78" width="280" height="26" as="geometry" />
        </mxCell>
        <mxCell id="zkfFHV4jXpPFQw0GAbJ--8" value="bit_status_: uint8_t" style="text;align=left;verticalAlign=top;spacingLeft=4;spacingRight=4;overflow=hidden;rotatable=0;points=[[0,0.5],[1,0.5]];portConstraint=eastwest;rounded=0;shadow=0;html=0;" parent="zkfFHV4jXpPFQw0GAbJ--6" vertex="1">
          <mxGeometry y="104" width="280" height="26" as="geometry" />
        </mxCell>
        <mxCell id="zkfFHV4jXpPFQw0GAbJ--9" value="" style="line;html=1;strokeWidth=1;align=left;verticalAlign=middle;spacingTop=-1;spacingLeft=3;spacingRight=3;rotatable=0;labelPosition=right;points=[];portConstraint=eastwest;" parent="zkfFHV4jXpPFQw0GAbJ--6" vertex="1">
          <mxGeometry y="130" width="280" height="8" as="geometry" />
        </mxCell>
        <mxCell id="zkfFHV4jXpPFQw0GAbJ--10" value="applyRule(inhibit: bool, population: int)" style="text;align=left;verticalAlign=top;spacingLeft=4;spacingRight=4;overflow=hidden;rotatable=0;points=[[0,0.5],[1,0.5]];portConstraint=eastwest;fontStyle=0" parent="zkfFHV4jXpPFQw0GAbJ--6" vertex="1">
          <mxGeometry y="138" width="280" height="26" as="geometry" />
        </mxCell>
        <mxCell id="zkfFHV4jXpPFQw0GAbJ--11" value="isActive() : bool" style="text;align=left;verticalAlign=top;spacingLeft=4;spacingRight=4;overflow=hidden;rotatable=0;points=[[0,0.5],[1,0.5]];portConstraint=eastwest;" parent="zkfFHV4jXpPFQw0GAbJ--6" vertex="1">
          <mxGeometry y="164" width="280" height="26" as="geometry" />
        </mxCell>
        <mxCell id="tottdEG-GUZgyUz6kuhv-0" value="" style="endArrow=diamondThin;endFill=0;endSize=24;html=1;rounded=0;exitX=1.009;exitY=-0.245;exitDx=0;exitDy=0;entryX=0;entryY=0.5;entryDx=0;entryDy=0;exitPerimeter=0;" parent="WIyWlLk6GJQsqaUBKTNV-1" source="zkfFHV4jXpPFQw0GAbJ--8" target="tottdEG-GUZgyUz6kuhv-41" edge="1">
          <mxGeometry width="160" relative="1" as="geometry">
            <mxPoint x="610" y="1350" as="sourcePoint" />
            <mxPoint x="770" y="1350" as="targetPoint" />
          </mxGeometry>
        </mxCell>
        <mxCell id="tottdEG-GUZgyUz6kuhv-19" value="Komari::Brain" style="swimlane;fontStyle=1;align=center;verticalAlign=top;childLayout=stackLayout;horizontal=1;startSize=26;horizontalStack=0;resizeParent=1;resizeLast=0;collapsible=1;marginBottom=0;rounded=0;shadow=0;strokeWidth=1;" parent="WIyWlLk6GJQsqaUBKTNV-1" vertex="1">
          <mxGeometry x="490" y="250" width="370" height="864" as="geometry">
            <mxRectangle x="130" y="380" width="160" height="26" as="alternateBounds" />
          </mxGeometry>
        </mxCell>
        <mxCell id="tottdEG-GUZgyUz6kuhv-20" value="p_: float" style="text;align=left;verticalAlign=top;spacingLeft=4;spacingRight=4;overflow=hidden;rotatable=0;points=[[0,0.5],[1,0.5]];portConstraint=eastwest;" parent="tottdEG-GUZgyUz6kuhv-19" vertex="1">
          <mxGeometry y="26" width="370" height="26" as="geometry" />
        </mxCell>
        <mxCell id="tottdEG-GUZgyUz6kuhv-21" value="beta_: float" style="text;align=left;verticalAlign=top;spacingLeft=4;spacingRight=4;overflow=hidden;rotatable=0;points=[[0,0.5],[1,0.5]];portConstraint=eastwest;rounded=0;shadow=0;html=0;" parent="tottdEG-GUZgyUz6kuhv-19" vertex="1">
          <mxGeometry y="52" width="370" height="26" as="geometry" />
        </mxCell>
        <mxCell id="tottdEG-GUZgyUz6kuhv-22" value="rng_: std::mt19937" style="text;align=left;verticalAlign=top;spacingLeft=4;spacingRight=4;overflow=hidden;rotatable=0;points=[[0,0.5],[1,0.5]];portConstraint=eastwest;rounded=0;shadow=0;html=0;" parent="tottdEG-GUZgyUz6kuhv-19" vertex="1">
          <mxGeometry y="78" width="370" height="26" as="geometry" />
        </mxCell>
        <mxCell id="tottdEG-GUZgyUz6kuhv-28" value="area_by_name_: std::map&lt;std::string, uint32_t&gt;" style="text;align=left;verticalAlign=top;spacingLeft=4;spacingRight=4;overflow=hidden;rotatable=0;points=[[0,0.5],[1,0.5]];portConstraint=eastwest;rounded=0;shadow=0;html=0;" parent="tottdEG-GUZgyUz6kuhv-19" vertex="1">
          <mxGeometry y="104" width="370" height="26" as="geometry" />
        </mxCell>
        <mxCell id="tottdEG-GUZgyUz6kuhv-29" value="area_names_: std::vector&lt;std::string&gt;" style="text;align=left;verticalAlign=top;spacingLeft=4;spacingRight=4;overflow=hidden;rotatable=0;points=[[0,0.5],[1,0.5]];portConstraint=eastwest;rounded=0;shadow=0;html=0;" parent="tottdEG-GUZgyUz6kuhv-19" vertex="1">
          <mxGeometry y="130" width="370" height="26" as="geometry" />
        </mxCell>
        <mxCell id="tottdEG-GUZgyUz6kuhv-30" value="areas_: Area[MAX_NUM_AREAS]" style="text;align=left;verticalAlign=top;spacingLeft=4;spacingRight=4;overflow=hidden;rotatable=0;points=[[0,0.5],[1,0.5]];portConstraint=eastwest;rounded=0;shadow=0;html=0;" parent="tottdEG-GUZgyUz6kuhv-19" vertex="1">
          <mxGeometry y="156" width="370" height="26" as="geometry" />
        </mxCell>
        <mxCell id="tottdEG-GUZgyUz6kuhv-27" value="fibers_: Fiber[MAX_NUM_AREAS][MAX_NUM_AREAS]" style="text;align=left;verticalAlign=top;spacingLeft=4;spacingRight=4;overflow=hidden;rotatable=0;points=[[0,0.5],[1,0.5]];portConstraint=eastwest;rounded=0;shadow=0;html=0;" parent="tottdEG-GUZgyUz6kuhv-19" vertex="1">
          <mxGeometry y="182" width="370" height="26" as="geometry" />
        </mxCell>
        <mxCell id="tottdEG-GUZgyUz6kuhv-35" value="num_areas_: int" style="text;align=left;verticalAlign=top;spacingLeft=4;spacingRight=4;overflow=hidden;rotatable=0;points=[[0,0.5],[1,0.5]];portConstraint=eastwest;rounded=0;shadow=0;html=0;" parent="tottdEG-GUZgyUz6kuhv-19" vertex="1">
          <mxGeometry y="208" width="370" height="26" as="geometry" />
        </mxCell>
        <mxCell id="tottdEG-GUZgyUz6kuhv-23" value="disable_plasticity: bool" style="text;align=left;verticalAlign=top;spacingLeft=4;spacingRight=4;overflow=hidden;rotatable=0;points=[[0,0.5],[1,0.5]];portConstraint=eastwest;rounded=0;shadow=0;html=0;" parent="tottdEG-GUZgyUz6kuhv-19" vertex="1">
          <mxGeometry y="234" width="370" height="26" as="geometry" />
        </mxCell>
        <mxCell id="tottdEG-GUZgyUz6kuhv-24" value="" style="line;html=1;strokeWidth=1;align=left;verticalAlign=middle;spacingTop=-1;spacingLeft=3;spacingRight=3;rotatable=0;labelPosition=right;points=[];portConstraint=eastwest;" parent="tottdEG-GUZgyUz6kuhv-19" vertex="1">
          <mxGeometry y="260" width="370" height="8" as="geometry" />
        </mxCell>
        <mxCell id="tottdEG-GUZgyUz6kuhv-25" value="getAreaByName(name: std::string) : Area&amp;" style="text;align=left;verticalAlign=top;spacingLeft=4;spacingRight=4;overflow=hidden;rotatable=0;points=[[0,0.5],[1,0.5]];portConstraint=eastwest;fontStyle=0" parent="tottdEG-GUZgyUz6kuhv-19" vertex="1">
          <mxGeometry y="268" width="370" height="26" as="geometry" />
        </mxCell>
        <mxCell id="tottdEG-GUZgyUz6kuhv-38" value="AddArea(area_name: std::string, num_neurons: int, &#xa;k_winners: int, beta: float)" style="text;align=left;verticalAlign=top;spacingLeft=4;spacingRight=4;overflow=hidden;rotatable=0;points=[[0,0.5],[1,0.5]];portConstraint=eastwest;" parent="tottdEG-GUZgyUz6kuhv-19" vertex="1">
          <mxGeometry y="294" width="370" height="36" as="geometry" />
        </mxCell>
        <mxCell id="tottdEG-GUZgyUz6kuhv-42" value="AddExplicitArea(area_name: std::string, num_neurons: int, &#xa;k_winners: int, beta: float)" style="text;align=left;verticalAlign=top;spacingLeft=4;spacingRight=4;overflow=hidden;rotatable=0;points=[[0,0.5],[1,0.5]];portConstraint=eastwest;" parent="tottdEG-GUZgyUz6kuhv-19" vertex="1">
          <mxGeometry y="330" width="370" height="40" as="geometry" />
        </mxCell>
        <mxCell id="tottdEG-GUZgyUz6kuhv-41" value="Project(target_area: std::string, &#xa;from_areas: std::vector&lt;std::string&gt;) : int" style="text;align=left;verticalAlign=top;spacingLeft=4;spacingRight=4;overflow=hidden;rotatable=0;points=[[0,0.5],[1,0.5]];portConstraint=eastwest;" parent="tottdEG-GUZgyUz6kuhv-19" vertex="1">
          <mxGeometry y="370" width="370" height="40" as="geometry" />
        </mxCell>
        <mxCell id="tottdEG-GUZgyUz6kuhv-39" value="ProjectStar(proj_map: std::map&lt;std::string, std::vector&lt;std::string&gt;&gt;)" style="text;align=left;verticalAlign=top;spacingLeft=4;spacingRight=4;overflow=hidden;rotatable=0;points=[[0,0.5],[1,0.5]];portConstraint=eastwest;" parent="tottdEG-GUZgyUz6kuhv-19" vertex="1">
          <mxGeometry y="410" width="370" height="26" as="geometry" />
        </mxCell>
        <mxCell id="tottdEG-GUZgyUz6kuhv-40" value="ApplyAreaRule(area: std::string, inhibit: bool, population: int)" style="text;align=left;verticalAlign=top;spacingLeft=4;spacingRight=4;overflow=hidden;rotatable=0;points=[[0,0.5],[1,0.5]];portConstraint=eastwest;" parent="tottdEG-GUZgyUz6kuhv-19" vertex="1">
          <mxGeometry y="436" width="370" height="26" as="geometry" />
        </mxCell>
        <mxCell id="tottdEG-GUZgyUz6kuhv-37" value="ApplyFiberRule(first_area: std::string, second_area: std::string, &#xa;inhibit: bool, population: int)" style="text;align=left;verticalAlign=top;spacingLeft=4;spacingRight=4;overflow=hidden;rotatable=0;points=[[0,0.5],[1,0.5]];portConstraint=eastwest;" parent="tottdEG-GUZgyUz6kuhv-19" vertex="1">
          <mxGeometry y="462" width="370" height="38" as="geometry" />
        </mxCell>
        <mxCell id="tottdEG-GUZgyUz6kuhv-43" value="IsActive(area: std::string) : bool" style="text;align=left;verticalAlign=top;spacingLeft=4;spacingRight=4;overflow=hidden;rotatable=0;points=[[0,0.5],[1,0.5]];portConstraint=eastwest;" parent="tottdEG-GUZgyUz6kuhv-19" vertex="1">
          <mxGeometry y="500" width="370" height="26" as="geometry" />
        </mxCell>
        <mxCell id="tottdEG-GUZgyUz6kuhv-48" value="IsActive(first_area: std::string, second_area: std::string) : bool" style="text;align=left;verticalAlign=top;spacingLeft=4;spacingRight=4;overflow=hidden;rotatable=0;points=[[0,0.5],[1,0.5]];portConstraint=eastwest;" parent="tottdEG-GUZgyUz6kuhv-19" vertex="1">
          <mxGeometry y="526" width="370" height="26" as="geometry" />
        </mxCell>
        <mxCell id="tottdEG-GUZgyUz6kuhv-47" value="GetProjectMap() : std::map&lt;std::string, std::vector&lt;std::string&gt;&gt;" style="text;align=left;verticalAlign=top;spacingLeft=4;spacingRight=4;overflow=hidden;rotatable=0;points=[[0,0.5],[1,0.5]];portConstraint=eastwest;" parent="tottdEG-GUZgyUz6kuhv-19" vertex="1">
          <mxGeometry y="552" width="370" height="26" as="geometry" />
        </mxCell>
        <mxCell id="tottdEG-GUZgyUz6kuhv-46" value="FixAssembly(area_name: std::string)" style="text;align=left;verticalAlign=top;spacingLeft=4;spacingRight=4;overflow=hidden;rotatable=0;points=[[0,0.5],[1,0.5]];portConstraint=eastwest;" parent="tottdEG-GUZgyUz6kuhv-19" vertex="1">
          <mxGeometry y="578" width="370" height="26" as="geometry" />
        </mxCell>
        <mxCell id="tottdEG-GUZgyUz6kuhv-44" value="UnfixAssembly(area_name: std::string)" style="text;align=left;verticalAlign=top;spacingLeft=4;spacingRight=4;overflow=hidden;rotatable=0;points=[[0,0.5],[1,0.5]];portConstraint=eastwest;" parent="tottdEG-GUZgyUz6kuhv-19" vertex="1">
          <mxGeometry y="604" width="370" height="26" as="geometry" />
        </mxCell>
        <mxCell id="tottdEG-GUZgyUz6kuhv-45" value="Fire(area_name: std::string, begin: int, end: int)" style="text;align=left;verticalAlign=top;spacingLeft=4;spacingRight=4;overflow=hidden;rotatable=0;points=[[0,0.5],[1,0.5]];portConstraint=eastwest;" parent="tottdEG-GUZgyUz6kuhv-19" vertex="1">
          <mxGeometry y="630" width="370" height="26" as="geometry" />
        </mxCell>
        <mxCell id="tottdEG-GUZgyUz6kuhv-50" value="InhibitAllAreas(inhibit: bool, population: int)" style="text;align=left;verticalAlign=top;spacingLeft=4;spacingRight=4;overflow=hidden;rotatable=0;points=[[0,0.5],[1,0.5]];portConstraint=eastwest;" parent="tottdEG-GUZgyUz6kuhv-19" vertex="1">
          <mxGeometry y="656" width="370" height="26" as="geometry" />
        </mxCell>
        <mxCell id="tottdEG-GUZgyUz6kuhv-51" value="InhibitAllFibers(population: int)" style="text;align=left;verticalAlign=top;spacingLeft=4;spacingRight=4;overflow=hidden;rotatable=0;points=[[0,0.5],[1,0.5]];portConstraint=eastwest;" parent="tottdEG-GUZgyUz6kuhv-19" vertex="1">
          <mxGeometry y="682" width="370" height="26" as="geometry" />
        </mxCell>
        <mxCell id="tottdEG-GUZgyUz6kuhv-49" value="UpdatePlasticities(recurrent_areas: std::vector&lt;std::string&gt;,&#xa; strong_area: std::string, recurrent_beta: float,&#xa; interarea_beta: float, strong_beta: float)" style="text;align=left;verticalAlign=top;spacingLeft=4;spacingRight=4;overflow=hidden;rotatable=0;points=[[0,0.5],[1,0.5]];portConstraint=eastwest;" parent="tottdEG-GUZgyUz6kuhv-19" vertex="1">
          <mxGeometry y="708" width="370" height="52" as="geometry" />
        </mxCell>
        <mxCell id="tottdEG-GUZgyUz6kuhv-53" value="DisablePlasticity()" style="text;align=left;verticalAlign=top;spacingLeft=4;spacingRight=4;overflow=hidden;rotatable=0;points=[[0,0.5],[1,0.5]];portConstraint=eastwest;" parent="tottdEG-GUZgyUz6kuhv-19" vertex="1">
          <mxGeometry y="760" width="370" height="26" as="geometry" />
        </mxCell>
        <mxCell id="tottdEG-GUZgyUz6kuhv-52" value="EnablePlasticity()" style="text;align=left;verticalAlign=top;spacingLeft=4;spacingRight=4;overflow=hidden;rotatable=0;points=[[0,0.5],[1,0.5]];portConstraint=eastwest;" parent="tottdEG-GUZgyUz6kuhv-19" vertex="1">
          <mxGeometry y="786" width="370" height="26" as="geometry" />
        </mxCell>
        <mxCell id="tottdEG-GUZgyUz6kuhv-54" value="brainReset()" style="text;align=left;verticalAlign=top;spacingLeft=4;spacingRight=4;overflow=hidden;rotatable=0;points=[[0,0.5],[1,0.5]];portConstraint=eastwest;" parent="tottdEG-GUZgyUz6kuhv-19" vertex="1">
          <mxGeometry y="812" width="370" height="26" as="geometry" />
        </mxCell>
        <mxCell id="tottdEG-GUZgyUz6kuhv-26" value="info()" style="text;align=left;verticalAlign=top;spacingLeft=4;spacingRight=4;overflow=hidden;rotatable=0;points=[[0,0.5],[1,0.5]];portConstraint=eastwest;" parent="tottdEG-GUZgyUz6kuhv-19" vertex="1">
          <mxGeometry y="838" width="370" height="26" as="geometry" />
        </mxCell>
        <mxCell id="tottdEG-GUZgyUz6kuhv-55" value="BioParser::Parser" style="swimlane;fontStyle=1;align=center;verticalAlign=top;childLayout=stackLayout;horizontal=1;startSize=26;horizontalStack=0;resizeParent=1;resizeLast=0;collapsible=1;marginBottom=0;rounded=0;shadow=0;strokeWidth=1;" parent="WIyWlLk6GJQsqaUBKTNV-1" vertex="1">
          <mxGeometry x="960" y="530" width="400" height="614" as="geometry">
            <mxRectangle x="230" y="140" width="160" height="26" as="alternateBounds" />
          </mxGeometry>
        </mxCell>
        <mxCell id="tottdEG-GUZgyUz6kuhv-56" value="lexeme_dict_: std::map&lt;std::string, PosAndIndex&gt;" style="text;align=left;verticalAlign=top;spacingLeft=4;spacingRight=4;overflow=hidden;rotatable=0;points=[[0,0.5],[1,0.5]];portConstraint=eastwest;" parent="tottdEG-GUZgyUz6kuhv-55" vertex="1">
          <mxGeometry y="26" width="400" height="26" as="geometry" />
        </mxCell>
        <mxCell id="tottdEG-GUZgyUz6kuhv-57" value="all_areas_: std::vector&lt;std::string&gt;" style="text;align=left;verticalAlign=top;spacingLeft=4;spacingRight=4;overflow=hidden;rotatable=0;points=[[0,0.5],[1,0.5]];portConstraint=eastwest;rounded=0;shadow=0;html=0;" parent="tottdEG-GUZgyUz6kuhv-55" vertex="1">
          <mxGeometry y="52" width="400" height="26" as="geometry" />
        </mxCell>
        <mxCell id="tottdEG-GUZgyUz6kuhv-58" value="initial_areas_: std::vector&lt;std::string&gt;" style="text;align=left;verticalAlign=top;spacingLeft=4;spacingRight=4;overflow=hidden;rotatable=0;points=[[0,0.5],[1,0.5]];portConstraint=eastwest;rounded=0;shadow=0;html=0;" parent="tottdEG-GUZgyUz6kuhv-55" vertex="1">
          <mxGeometry y="78" width="400" height="26" as="geometry" />
        </mxCell>
        <mxCell id="tottdEG-GUZgyUz6kuhv-59" value="recurrent_areas_: std::vector&lt;std::string&gt;" style="text;align=left;verticalAlign=top;spacingLeft=4;spacingRight=4;overflow=hidden;rotatable=0;points=[[0,0.5],[1,0.5]];portConstraint=eastwest;rounded=0;shadow=0;html=0;" parent="tottdEG-GUZgyUz6kuhv-55" vertex="1">
          <mxGeometry y="104" width="400" height="26" as="geometry" />
        </mxCell>
        <mxCell id="tottdEG-GUZgyUz6kuhv-60" value="activated_fibers_: std::map&lt;std::string, std::unordered_set&lt;std::string&gt;&gt;" style="text;align=left;verticalAlign=top;spacingLeft=4;spacingRight=4;overflow=hidden;rotatable=0;points=[[0,0.5],[1,0.5]];portConstraint=eastwest;rounded=0;shadow=0;html=0;" parent="tottdEG-GUZgyUz6kuhv-55" vertex="1">
          <mxGeometry y="130" width="400" height="26" as="geometry" />
        </mxCell>
        <mxCell id="tottdEG-GUZgyUz6kuhv-61" value="readout_rules_: std::map&lt;std::string, std::unordered_set&lt;std::string&gt;&gt;" style="text;align=left;verticalAlign=top;spacingLeft=4;spacingRight=4;overflow=hidden;rotatable=0;points=[[0,0.5],[1,0.5]];portConstraint=eastwest;rounded=0;shadow=0;html=0;" parent="tottdEG-GUZgyUz6kuhv-55" vertex="1">
          <mxGeometry y="156" width="400" height="26" as="geometry" />
        </mxCell>
        <mxCell id="tottdEG-GUZgyUz6kuhv-67" value="" style="line;html=1;strokeWidth=1;align=left;verticalAlign=middle;spacingTop=-1;spacingLeft=3;spacingRight=3;rotatable=0;labelPosition=right;points=[];portConstraint=eastwest;" parent="tottdEG-GUZgyUz6kuhv-55" vertex="1">
          <mxGeometry y="182" width="400" height="8" as="geometry" />
        </mxCell>
        <mxCell id="tottdEG-GUZgyUz6kuhv-68" value="Parser(p: float, lexeme_dict_: std::map&lt;std::string, PosAndIndex&gt;, &#xa;all_areas_: std::vector&lt;std::string&gt;, initial_areas_: std::vector&lt;std::string&gt;, &#xa;recurrent_areas_: std::vector&lt;std::string&gt;, &#xa;readout_rules_: std::map&lt;std::string, std::vector&lt;std::string&gt;&gt;)" style="text;align=left;verticalAlign=top;spacingLeft=4;spacingRight=4;overflow=hidden;rotatable=0;points=[[0,0.5],[1,0.5]];portConstraint=eastwest;rounded=0;shadow=0;html=0;" parent="tottdEG-GUZgyUz6kuhv-55" vertex="1">
          <mxGeometry y="190" width="400" height="70" as="geometry" />
        </mxCell>
        <mxCell id="tottdEG-GUZgyUz6kuhv-69" value="Parser(p: float, lexeme_dict_path: std::string, &#xa;all_areas_: std::vector&lt;std::string&gt;, initial_areas_: std::vector&lt;std::string&gt;, &#xa;recurrent_areas_: std::vector&lt;std::string&gt;, &#xa;readout_rules_: std::map&lt;std::string, std::vector&lt;std::string&gt;&gt;)" style="text;align=left;verticalAlign=top;spacingLeft=4;spacingRight=4;overflow=hidden;rotatable=0;points=[[0,0.5],[1,0.5]];portConstraint=eastwest;rounded=0;shadow=0;html=0;" parent="tottdEG-GUZgyUz6kuhv-55" vertex="1">
          <mxGeometry y="260" width="400" height="70" as="geometry" />
        </mxCell>
        <mxCell id="tottdEG-GUZgyUz6kuhv-70" value="ReadOut(area_name: std::string, &#xa;readout_map: std::map&lt;std::string, std::vector&lt;std::string&gt;&gt;, &#xa;dependency: std::vector&lt;std::vector&lt;std::string&gt;&gt;)" style="text;align=left;verticalAlign=top;spacingLeft=4;spacingRight=4;overflow=hidden;rotatable=0;points=[[0,0.5],[1,0.5]];portConstraint=eastwest;" parent="tottdEG-GUZgyUz6kuhv-55" vertex="1">
          <mxGeometry y="330" width="400" height="50" as="geometry" />
        </mxCell>
        <mxCell id="tottdEG-GUZgyUz6kuhv-71" value="ActivateWord(area_name: std::string, word: std::string)" style="text;align=left;verticalAlign=top;spacingLeft=4;spacingRight=4;overflow=hidden;rotatable=0;points=[[0,0.5],[1,0.5]];portConstraint=eastwest;" parent="tottdEG-GUZgyUz6kuhv-55" vertex="1">
          <mxGeometry y="380" width="400" height="26" as="geometry" />
        </mxCell>
        <mxCell id="tottdEG-GUZgyUz6kuhv-72" value="GetWord(area_name: std::string, threshold: float) : std::string" style="text;align=left;verticalAlign=top;spacingLeft=4;spacingRight=4;overflow=hidden;rotatable=0;points=[[0,0.5],[1,0.5]];portConstraint=eastwest;" parent="tottdEG-GUZgyUz6kuhv-55" vertex="1">
          <mxGeometry y="406" width="400" height="26" as="geometry" />
        </mxCell>
        <mxCell id="tottdEG-GUZgyUz6kuhv-73" value="ApplyRules(rules: AreaAndFiberRules)" style="text;align=left;verticalAlign=top;spacingLeft=4;spacingRight=4;overflow=hidden;rotatable=0;points=[[0,0.5],[1,0.5]];portConstraint=eastwest;" parent="tottdEG-GUZgyUz6kuhv-55" vertex="1">
          <mxGeometry y="432" width="400" height="26" as="geometry" />
        </mxCell>
        <mxCell id="tottdEG-GUZgyUz6kuhv-74" value="Step()" style="text;align=left;verticalAlign=top;spacingLeft=4;spacingRight=4;overflow=hidden;rotatable=0;points=[[0,0.5],[1,0.5]];portConstraint=eastwest;" parent="tottdEG-GUZgyUz6kuhv-55" vertex="1">
          <mxGeometry y="458" width="400" height="26" as="geometry" />
        </mxCell>
        <mxCell id="tottdEG-GUZgyUz6kuhv-75" value="Initiate()" style="text;align=left;verticalAlign=top;spacingLeft=4;spacingRight=4;overflow=hidden;rotatable=0;points=[[0,0.5],[1,0.5]];portConstraint=eastwest;" parent="tottdEG-GUZgyUz6kuhv-55" vertex="1">
          <mxGeometry y="484" width="400" height="26" as="geometry" />
        </mxCell>
        <mxCell id="tottdEG-GUZgyUz6kuhv-76" value="UnfixAllAreas()" style="text;align=left;verticalAlign=top;spacingLeft=4;spacingRight=4;overflow=hidden;rotatable=0;points=[[0,0.5],[1,0.5]];portConstraint=eastwest;" parent="tottdEG-GUZgyUz6kuhv-55" vertex="1">
          <mxGeometry y="510" width="400" height="26" as="geometry" />
        </mxCell>
        <mxCell id="tottdEG-GUZgyUz6kuhv-77" value="getActivatedFibers() : std::map&lt;std::string, std::unordered_set&lt;std::string&gt;&gt;" style="text;align=left;verticalAlign=top;spacingLeft=4;spacingRight=4;overflow=hidden;rotatable=0;points=[[0,0.5],[1,0.5]];portConstraint=eastwest;" parent="tottdEG-GUZgyUz6kuhv-55" vertex="1">
          <mxGeometry y="536" width="400" height="26" as="geometry" />
        </mxCell>
        <mxCell id="tottdEG-GUZgyUz6kuhv-78" value="GetPosAndIndex(word: std::string) : PosAndIndex" style="text;align=left;verticalAlign=top;spacingLeft=4;spacingRight=4;overflow=hidden;rotatable=0;points=[[0,0.5],[1,0.5]];portConstraint=eastwest;" parent="tottdEG-GUZgyUz6kuhv-55" vertex="1">
          <mxGeometry y="562" width="400" height="26" as="geometry" />
        </mxCell>
        <mxCell id="tottdEG-GUZgyUz6kuhv-79" value="Reset()" style="text;align=left;verticalAlign=top;spacingLeft=4;spacingRight=4;overflow=hidden;rotatable=0;points=[[0,0.5],[1,0.5]];portConstraint=eastwest;" parent="tottdEG-GUZgyUz6kuhv-55" vertex="1">
          <mxGeometry y="588" width="400" height="26" as="geometry" />
        </mxCell>
        <mxCell id="tottdEG-GUZgyUz6kuhv-80" value="Pipeline" style="swimlane;fontStyle=1;align=center;verticalAlign=top;childLayout=stackLayout;horizontal=1;startSize=26;horizontalStack=0;resizeParent=1;resizeLast=0;collapsible=1;marginBottom=0;rounded=0;shadow=0;strokeWidth=1;" parent="WIyWlLk6GJQsqaUBKTNV-1" vertex="1">
          <mxGeometry x="1470" y="800" width="300" height="280" as="geometry">
            <mxRectangle x="230" y="140" width="160" height="26" as="alternateBounds" />
          </mxGeometry>
        </mxCell>
        <mxCell id="tottdEG-GUZgyUz6kuhv-81" value="parser_brain_: BioParser::Parser" style="text;align=left;verticalAlign=top;spacingLeft=4;spacingRight=4;overflow=hidden;rotatable=0;points=[[0,0.5],[1,0.5]];portConstraint=eastwest;" parent="tottdEG-GUZgyUz6kuhv-80" vertex="1">
          <mxGeometry y="26" width="300" height="26" as="geometry" />
        </mxCell>
        <mxCell id="tottdEG-GUZgyUz6kuhv-82" value="origin_parser_brain_: BioParser::Parser" style="text;align=left;verticalAlign=top;spacingLeft=4;spacingRight=4;overflow=hidden;rotatable=0;points=[[0,0.5],[1,0.5]];portConstraint=eastwest;rounded=0;shadow=0;html=0;" parent="tottdEG-GUZgyUz6kuhv-80" vertex="1">
          <mxGeometry y="52" width="300" height="26" as="geometry" />
        </mxCell>
        <mxCell id="tottdEG-GUZgyUz6kuhv-83" value="total_time_: double" style="text;align=left;verticalAlign=top;spacingLeft=4;spacingRight=4;overflow=hidden;rotatable=0;points=[[0,0.5],[1,0.5]];portConstraint=eastwest;rounded=0;shadow=0;html=0;" parent="tottdEG-GUZgyUz6kuhv-80" vertex="1">
          <mxGeometry y="78" width="300" height="26" as="geometry" />
        </mxCell>
        <mxCell id="tottdEG-GUZgyUz6kuhv-87" value="" style="line;html=1;strokeWidth=1;align=left;verticalAlign=middle;spacingTop=-1;spacingLeft=3;spacingRight=3;rotatable=0;labelPosition=right;points=[];portConstraint=eastwest;" parent="tottdEG-GUZgyUz6kuhv-80" vertex="1">
          <mxGeometry y="104" width="300" height="8" as="geometry" />
        </mxCell>
        <mxCell id="tottdEG-GUZgyUz6kuhv-88" value="Pipeline(parser: BioParser::Parser&amp;)" style="text;align=left;verticalAlign=top;spacingLeft=4;spacingRight=4;overflow=hidden;rotatable=0;points=[[0,0.5],[1,0.5]];portConstraint=eastwest;rounded=0;shadow=0;html=0;" parent="tottdEG-GUZgyUz6kuhv-80" vertex="1">
          <mxGeometry y="112" width="300" height="26" as="geometry" />
        </mxCell>
        <mxCell id="tottdEG-GUZgyUz6kuhv-89" value="Tokenize(sentence: std::string) : std::vector&lt;std::string&gt;" style="text;align=left;verticalAlign=top;spacingLeft=4;spacingRight=4;overflow=hidden;rotatable=0;points=[[0,0.5],[1,0.5]];portConstraint=eastwest;rounded=0;shadow=0;html=0;" parent="tottdEG-GUZgyUz6kuhv-80" vertex="1">
          <mxGeometry y="138" width="300" height="26" as="geometry" />
        </mxCell>
        <mxCell id="tottdEG-GUZgyUz6kuhv-90" value="DepParse(word_vector: std::vector&lt;std::string&gt;, &#xa;p: float, LEX_k: int, proj_rounds: int, non_LEX_n: int, &#xa;non_LEX_k: int, method: ReadoutMethod, &#xa;verbose: bool) : std::vector&lt;std::vector&lt;std::string&gt;&gt;" style="text;align=left;verticalAlign=top;spacingLeft=4;spacingRight=4;overflow=hidden;rotatable=0;points=[[0,0.5],[1,0.5]];portConstraint=eastwest;" parent="tottdEG-GUZgyUz6kuhv-80" vertex="1">
          <mxGeometry y="164" width="300" height="66" as="geometry" />
        </mxCell>
        <mxCell id="tottdEG-GUZgyUz6kuhv-91" value="FileDepParse(file_path: std::string, p: float,&#xa; LEX_k: int, proj_rounds: int, non_LEX_n: int, &#xa;non_LEX_k: int, method: ReadoutMethod) " style="text;align=left;verticalAlign=top;spacingLeft=4;spacingRight=4;overflow=hidden;rotatable=0;points=[[0,0.5],[1,0.5]];portConstraint=eastwest;" parent="tottdEG-GUZgyUz6kuhv-80" vertex="1">
          <mxGeometry y="230" width="300" height="50" as="geometry" />
        </mxCell>
        <mxCell id="tottdEG-GUZgyUz6kuhv-100" value="" style="endArrow=diamondThin;endFill=0;endSize=24;html=1;rounded=0;exitX=1;exitY=0.5;exitDx=0;exitDy=0;entryX=0;entryY=0.5;entryDx=0;entryDy=0;" parent="WIyWlLk6GJQsqaUBKTNV-1" source="tottdEG-GUZgyUz6kuhv-9" target="tottdEG-GUZgyUz6kuhv-41" edge="1">
          <mxGeometry width="160" relative="1" as="geometry">
            <mxPoint x="650" y="1186" as="sourcePoint" />
            <mxPoint x="430" y="610" as="targetPoint" />
          </mxGeometry>
        </mxCell>
        <mxCell id="tottdEG-GUZgyUz6kuhv-102" value="Extends" style="endArrow=block;endSize=16;endFill=0;html=1;rounded=0;exitX=0;exitY=0.5;exitDx=0;exitDy=0;" parent="WIyWlLk6GJQsqaUBKTNV-1" source="tottdEG-GUZgyUz6kuhv-72" edge="1">
          <mxGeometry width="160" relative="1" as="geometry">
            <mxPoint x="1040" y="1000" as="sourcePoint" />
            <mxPoint x="860" y="757" as="targetPoint" />
          </mxGeometry>
        </mxCell>
        <mxCell id="tottdEG-GUZgyUz6kuhv-103" value="Use" style="endArrow=open;endSize=12;dashed=1;html=1;rounded=0;entryX=1;entryY=0.5;entryDx=0;entryDy=0;exitX=0;exitY=0.5;exitDx=0;exitDy=0;" parent="WIyWlLk6GJQsqaUBKTNV-1" source="tottdEG-GUZgyUz6kuhv-89" target="tottdEG-GUZgyUz6kuhv-72" edge="1">
          <mxGeometry width="160" relative="1" as="geometry">
            <mxPoint x="1380" y="969" as="sourcePoint" />
            <mxPoint x="1540" y="969" as="targetPoint" />
          </mxGeometry>
        </mxCell>
        <mxCell id="Bue850ZEVzTX12NIsps--24" style="rounded=0;orthogonalLoop=1;jettySize=auto;html=1;entryX=0.25;entryY=0;entryDx=0;entryDy=0;" edge="1" parent="WIyWlLk6GJQsqaUBKTNV-1" source="Bue850ZEVzTX12NIsps--0" target="tottdEG-GUZgyUz6kuhv-55">
          <mxGeometry relative="1" as="geometry" />
        </mxCell>
        <mxCell id="Bue850ZEVzTX12NIsps--0" value="PosAndIndex" style="swimlane;fontStyle=1;align=center;verticalAlign=top;childLayout=stackLayout;horizontal=1;startSize=26;horizontalStack=0;resizeParent=1;resizeLast=0;collapsible=1;marginBottom=0;rounded=0;shadow=0;strokeWidth=1;" vertex="1" parent="WIyWlLk6GJQsqaUBKTNV-1">
          <mxGeometry x="1000" y="300" width="110" height="90" as="geometry">
            <mxRectangle x="230" y="140" width="160" height="26" as="alternateBounds" />
          </mxGeometry>
        </mxCell>
        <mxCell id="Bue850ZEVzTX12NIsps--1" value="pos: int" style="text;align=left;verticalAlign=top;spacingLeft=4;spacingRight=4;overflow=hidden;rotatable=0;points=[[0,0.5],[1,0.5]];portConstraint=eastwest;fontSize=14;" vertex="1" parent="Bue850ZEVzTX12NIsps--0">
          <mxGeometry y="26" width="110" height="26" as="geometry" />
        </mxCell>
        <mxCell id="Bue850ZEVzTX12NIsps--2" value="index:int" style="text;align=left;verticalAlign=top;spacingLeft=4;spacingRight=4;overflow=hidden;rotatable=0;points=[[0,0.5],[1,0.5]];portConstraint=eastwest;rounded=0;shadow=0;html=0;fontSize=14;" vertex="1" parent="Bue850ZEVzTX12NIsps--0">
          <mxGeometry y="52" width="110" height="26" as="geometry" />
        </mxCell>
        <mxCell id="Bue850ZEVzTX12NIsps--9" value="AreaRule" style="swimlane;fontStyle=1;align=center;verticalAlign=top;childLayout=stackLayout;horizontal=1;startSize=26;horizontalStack=0;resizeParent=1;resizeLast=0;collapsible=1;marginBottom=0;rounded=0;shadow=0;strokeWidth=1;" vertex="1" parent="WIyWlLk6GJQsqaUBKTNV-1">
          <mxGeometry x="1400" y="240" width="150" height="120" as="geometry">
            <mxRectangle x="230" y="140" width="160" height="26" as="alternateBounds" />
          </mxGeometry>
        </mxCell>
        <mxCell id="Bue850ZEVzTX12NIsps--10" value="name: std::string" style="text;align=left;verticalAlign=top;spacingLeft=4;spacingRight=4;overflow=hidden;rotatable=0;points=[[0,0.5],[1,0.5]];portConstraint=eastwest;fontSize=14;" vertex="1" parent="Bue850ZEVzTX12NIsps--9">
          <mxGeometry y="26" width="150" height="26" as="geometry" />
        </mxCell>
        <mxCell id="Bue850ZEVzTX12NIsps--11" value="inhibit:bool&#xa;population:int" style="text;align=left;verticalAlign=top;spacingLeft=4;spacingRight=4;overflow=hidden;rotatable=0;points=[[0,0.5],[1,0.5]];portConstraint=eastwest;rounded=0;shadow=0;html=0;fontSize=14;" vertex="1" parent="Bue850ZEVzTX12NIsps--9">
          <mxGeometry y="52" width="150" height="58" as="geometry" />
        </mxCell>
        <mxCell id="Bue850ZEVzTX12NIsps--22" style="edgeStyle=orthogonalEdgeStyle;rounded=0;orthogonalLoop=1;jettySize=auto;html=1;entryX=0.5;entryY=0;entryDx=0;entryDy=0;" edge="1" parent="WIyWlLk6GJQsqaUBKTNV-1" source="Bue850ZEVzTX12NIsps--12" target="Bue850ZEVzTX12NIsps--15">
          <mxGeometry relative="1" as="geometry" />
        </mxCell>
        <mxCell id="Bue850ZEVzTX12NIsps--12" value="FiberRule" style="swimlane;fontStyle=1;align=center;verticalAlign=top;childLayout=stackLayout;horizontal=1;startSize=26;horizontalStack=0;resizeParent=1;resizeLast=0;collapsible=1;marginBottom=0;rounded=0;shadow=0;strokeWidth=1;" vertex="1" parent="WIyWlLk6GJQsqaUBKTNV-1">
          <mxGeometry x="1624" y="220" width="150" height="140" as="geometry">
            <mxRectangle x="230" y="140" width="160" height="26" as="alternateBounds" />
          </mxGeometry>
        </mxCell>
        <mxCell id="Bue850ZEVzTX12NIsps--13" value="first_name: std::string&#xa;second_name:std::string" style="text;align=left;verticalAlign=top;spacingLeft=4;spacingRight=4;overflow=hidden;rotatable=0;points=[[0,0.5],[1,0.5]];portConstraint=eastwest;fontSize=14;" vertex="1" parent="Bue850ZEVzTX12NIsps--12">
          <mxGeometry y="26" width="150" height="54" as="geometry" />
        </mxCell>
        <mxCell id="Bue850ZEVzTX12NIsps--14" value="inhibit:bool&#xa;population:int" style="text;align=left;verticalAlign=top;spacingLeft=4;spacingRight=4;overflow=hidden;rotatable=0;points=[[0,0.5],[1,0.5]];portConstraint=eastwest;rounded=0;shadow=0;html=0;fontSize=14;" vertex="1" parent="Bue850ZEVzTX12NIsps--12">
          <mxGeometry y="80" width="150" height="60" as="geometry" />
        </mxCell>
        <mxCell id="Bue850ZEVzTX12NIsps--15" value="AreaAndFiberRules" style="swimlane;fontStyle=1;align=center;verticalAlign=top;childLayout=stackLayout;horizontal=1;startSize=26;horizontalStack=0;resizeParent=1;resizeLast=0;collapsible=1;marginBottom=0;rounded=0;shadow=0;strokeWidth=1;" vertex="1" parent="WIyWlLk6GJQsqaUBKTNV-1">
          <mxGeometry x="1464" y="420" width="260" height="100" as="geometry">
            <mxRectangle x="230" y="140" width="160" height="26" as="alternateBounds" />
          </mxGeometry>
        </mxCell>
        <mxCell id="Bue850ZEVzTX12NIsps--16" value="area_rules:std::vector&lt;AreaRule&gt;" style="text;align=left;verticalAlign=top;spacingLeft=4;spacingRight=4;overflow=hidden;rotatable=0;points=[[0,0.5],[1,0.5]];portConstraint=eastwest;fontSize=14;" vertex="1" parent="Bue850ZEVzTX12NIsps--15">
          <mxGeometry y="26" width="260" height="26" as="geometry" />
        </mxCell>
        <mxCell id="Bue850ZEVzTX12NIsps--17" value="fiber_rules:std::vector&lt;FiberRule&gt;" style="text;align=left;verticalAlign=top;spacingLeft=4;spacingRight=4;overflow=hidden;rotatable=0;points=[[0,0.5],[1,0.5]];portConstraint=eastwest;rounded=0;shadow=0;html=0;fontSize=14;" vertex="1" parent="Bue850ZEVzTX12NIsps--15">
          <mxGeometry y="52" width="260" height="26" as="geometry" />
        </mxCell>
        <mxCell id="Bue850ZEVzTX12NIsps--18" value="AreaRule" style="swimlane;fontStyle=1;align=center;verticalAlign=top;childLayout=stackLayout;horizontal=1;startSize=26;horizontalStack=0;resizeParent=1;resizeLast=0;collapsible=1;marginBottom=0;rounded=0;shadow=0;strokeWidth=1;" vertex="1" parent="WIyWlLk6GJQsqaUBKTNV-1">
          <mxGeometry x="1480" y="580" width="240" height="120" as="geometry">
            <mxRectangle x="230" y="140" width="160" height="26" as="alternateBounds" />
          </mxGeometry>
        </mxCell>
        <mxCell id="Bue850ZEVzTX12NIsps--19" value="index:int" style="text;align=left;verticalAlign=top;spacingLeft=4;spacingRight=4;overflow=hidden;rotatable=0;points=[[0,0.5],[1,0.5]];portConstraint=eastwest;fontSize=14;" vertex="1" parent="Bue850ZEVzTX12NIsps--18">
          <mxGeometry y="26" width="240" height="26" as="geometry" />
        </mxCell>
        <mxCell id="Bue850ZEVzTX12NIsps--20" value="pre_rules:AreaAndFiberRules&#xa;post_rules:AreaAndFiberRules" style="text;align=left;verticalAlign=top;spacingLeft=4;spacingRight=4;overflow=hidden;rotatable=0;points=[[0,0.5],[1,0.5]];portConstraint=eastwest;rounded=0;shadow=0;html=0;fontSize=14;" vertex="1" parent="Bue850ZEVzTX12NIsps--18">
          <mxGeometry y="52" width="240" height="58" as="geometry" />
        </mxCell>
        <mxCell id="Bue850ZEVzTX12NIsps--21" style="edgeStyle=orthogonalEdgeStyle;rounded=0;orthogonalLoop=1;jettySize=auto;html=1;entryX=0.475;entryY=0.014;entryDx=0;entryDy=0;entryPerimeter=0;" edge="1" parent="WIyWlLk6GJQsqaUBKTNV-1" source="Bue850ZEVzTX12NIsps--9" target="Bue850ZEVzTX12NIsps--15">
          <mxGeometry relative="1" as="geometry" />
        </mxCell>
        <mxCell id="Bue850ZEVzTX12NIsps--23" style="edgeStyle=orthogonalEdgeStyle;rounded=0;orthogonalLoop=1;jettySize=auto;html=1;entryX=0.472;entryY=-0.031;entryDx=0;entryDy=0;entryPerimeter=0;" edge="1" parent="WIyWlLk6GJQsqaUBKTNV-1" source="Bue850ZEVzTX12NIsps--15" target="Bue850ZEVzTX12NIsps--18">
          <mxGeometry relative="1" as="geometry" />
        </mxCell>
      </root>
    </mxGraphModel>
  </diagram>
</mxfile>
